<svg width="197" height="99" viewBox="0 0 197 99" fill="none" xmlns="http://www.w3.org/2000/svg">
<path d="M176.171 14.3737C162.869 5.10309 145.162 0 126.386 0C116.635 0 107.225 1.36082 98.5 3.99742C89.8176 1.40335 80.3654 0 70.6138 0C51.8376 0 34.1307 5.10309 20.8291 14.3737C7.39926 23.7294 0 36.1894 0 49.5C0 62.8106 7.39926 75.2706 20.8291 84.6263C34.1307 93.8969 51.8376 99 70.6138 99C80.3654 99 89.7749 97.6392 98.5 95.0026C107.182 97.5966 116.635 99 126.386 99C145.162 99 162.869 93.8969 176.171 84.6263C189.601 75.2706 197 62.8106 197 49.5C197 36.1894 189.558 23.7294 176.171 14.3737ZM70.6138 96.8737C32.8476 96.8737 2.13851 75.6108 2.13851 49.5C2.13851 23.3892 32.8476 2.12629 70.6138 2.12629C79.1251 2.12629 87.2942 3.18943 94.779 5.18814C88.1068 7.52706 81.9907 10.5889 76.5588 14.3737C63.129 23.7294 55.7297 36.1894 55.7297 49.5C55.7297 62.8106 63.129 75.2706 76.5588 84.6263C81.9907 88.4111 88.1496 91.4729 94.779 93.8119C87.2942 95.768 79.1251 96.8737 70.6138 96.8737ZM98.5 6.25129C122.409 13.6508 139.089 30.2358 139.089 49.5C139.089 68.7642 122.409 85.3492 98.5 92.7487C74.5914 85.3492 57.911 68.7642 57.911 49.5C57.911 30.2358 74.5914 13.6508 98.5 6.25129ZM126.386 96.8737C117.875 96.8737 109.749 95.8106 102.221 93.8119C108.893 91.4729 115.009 88.4111 120.441 84.6263C133.871 75.2706 141.27 62.8106 141.27 49.5C141.27 36.1894 133.871 23.7294 120.441 14.3737C115.009 10.5889 108.85 7.52706 102.221 5.18814C109.749 3.23196 117.875 2.12629 126.386 2.12629C164.152 2.12629 194.861 23.3892 194.861 49.5C194.861 75.6108 164.11 96.8737 126.386 96.8737Z" fill="#5C614C"/>
</svg>
