<svg width="85" height="85" viewBox="0 0 85 85" fill="none" xmlns="http://www.w3.org/2000/svg">
<path d="M76.5 42.5C76.5 33.4826 72.9179 24.8346 66.5416 18.4584C60.1654 12.0821 51.5174 8.5 42.5 8.5C33.4826 8.5 24.8346 12.0821 18.4584 18.4584C12.0821 24.8346 8.5 33.4826 8.5 42.5C8.5 51.5174 12.0821 60.1654 18.4584 66.5416C24.8346 72.9179 33.4826 76.5 42.5 76.5C51.5174 76.5 60.1654 72.9179 66.5416 66.5416C72.9179 60.1654 76.5 51.5174 76.5 42.5ZM85 42.5C85 53.7717 80.5223 64.5817 72.552 72.552C64.5817 80.5223 53.7717 85 42.5 85C36.9188 85 31.3923 83.9007 26.236 81.7649C21.0796 79.6291 16.3945 76.4985 12.448 72.552C4.47767 64.5817 0 53.7717 0 42.5C0 31.2283 4.47767 20.4183 12.448 12.448C20.4183 4.47767 31.2283 0 42.5 0C48.0812 0 53.6077 1.0993 58.764 3.23512C63.9204 5.37095 68.6056 8.50147 72.552 12.448C76.4985 16.3945 79.6291 21.0796 81.7649 26.236C83.9007 31.3923 85 36.9188 85 42.5ZM34 31.875C34 35.275 31.025 38.25 27.625 38.25C24.225 38.25 21.25 35.275 21.25 31.875C21.25 28.475 24.225 25.5 27.625 25.5C31.025 25.5 34 28.475 34 31.875ZM63.75 31.875C63.75 35.275 60.775 38.25 57.375 38.25C53.975 38.25 51 35.275 51 31.875C51 28.475 53.975 25.5 57.375 25.5C60.775 25.5 63.75 28.475 63.75 31.875ZM42.5 64.7275C35.0625 64.7275 28.5175 61.625 24.6925 57.035L30.7275 51C32.64 54.06 37.1875 56.2275 42.5 56.2275C47.8125 56.2275 52.36 54.06 54.2725 51L60.3075 57.035C56.4825 61.625 49.9375 64.7275 42.5 64.7275Z" fill="#262626"/>
</svg>
