<svg width="86" height="87" viewBox="0 0 86 87" fill="none" xmlns="http://www.w3.org/2000/svg">
<path d="M0 0.5H86V86.5H0V0.5ZM22.5989 72.3578C24.51 76.4189 28.2844 79.7633 34.7344 79.7633C41.9011 79.7633 46.8222 75.9411 46.8222 67.58V39.9644H38.7V67.3889C38.7 71.4978 37.0278 72.5489 34.4 72.5489C31.6289 72.5489 30.4822 70.6378 29.1922 68.3922L22.5989 72.3578ZM51.17 71.4978C53.5589 76.18 58.3844 79.7633 65.9333 79.7633C73.5778 79.7633 79.3111 75.7978 79.3111 68.4878C79.3111 61.7511 75.4411 58.7411 68.5611 55.7789L66.5544 54.9189C63.0667 53.4378 61.5856 52.4344 61.5856 50.0456C61.5856 48.0867 63.0667 46.5578 65.4556 46.5578C67.7489 46.5578 69.2778 47.5611 70.6633 50.0456L76.9222 45.8889C74.2944 41.3022 70.5678 39.5344 65.4556 39.5344C58.2411 39.5344 53.6067 44.1211 53.6067 50.1889C53.6067 56.7822 57.4767 59.8878 63.3056 62.3722L65.3122 63.2322C69.0389 64.8567 71.2367 65.86 71.2367 68.6311C71.2367 70.9244 69.0867 72.5967 65.7422 72.5967C61.7767 72.5967 59.4833 70.5422 57.7633 67.6756L51.17 71.4978Z" fill="#2F3126"/>
</svg>
