<svg width="87" height="87" viewBox="0 0 87 87" fill="none" xmlns="http://www.w3.org/2000/svg">
<g clip-path="url(#clip0_14_5)">
<path d="M40.6541 0.067946C40.4672 0.0849365 39.8725 0.144403 39.3373 0.18688C26.9937 1.29976 15.4316 7.96005 8.1087 18.1968C4.03097 23.8887 1.42292 30.3451 0.437474 37.1838C0.0891682 39.5709 0.0466919 40.276 0.0466919 43.5127C0.0466919 46.7494 0.0891682 47.4545 0.437474 49.8417C2.79916 66.1611 14.4122 79.8725 30.1624 84.9526C32.9828 85.8616 35.9562 86.4818 39.3373 86.8556C40.6541 87 46.3459 87 47.6626 86.8556C53.4989 86.2099 58.4431 84.7657 63.3194 82.2766C64.067 81.8943 64.2114 81.7924 64.1095 81.7074C64.0415 81.6565 60.8558 77.3833 57.0329 72.2182L50.0838 62.831L41.3761 49.9436C36.5848 42.8586 32.643 37.0648 32.609 37.0648C32.5751 37.0563 32.5411 42.7821 32.5241 49.7737C32.4986 62.0154 32.4901 62.5081 32.3372 62.797C32.1163 63.2132 31.9464 63.3831 31.5896 63.57C31.3178 63.706 31.0799 63.7315 29.7971 63.7315H28.3274L27.9366 63.4851C27.6818 63.3237 27.4949 63.1113 27.3675 62.8649L27.1891 62.4827L27.2061 45.4496L27.2315 28.4081L27.4949 28.0768C27.6308 27.8984 27.9197 27.6691 28.1235 27.5586C28.4718 27.3887 28.6078 27.3717 30.0774 27.3717C31.8105 27.3717 32.0993 27.4397 32.5496 27.9324C32.677 28.0683 37.3919 35.1704 43.0327 43.7251C48.6736 52.2798 56.3873 63.9608 60.1762 69.6951L67.0573 80.1188L67.4056 79.8895C70.4894 77.8846 73.7516 75.0302 76.3342 72.0568C81.8306 65.7448 85.3731 58.0481 86.5625 49.8417C86.9108 47.4545 86.9532 46.7494 86.9532 43.5127C86.9532 40.276 86.9108 39.5709 86.5625 37.1838C84.2008 20.8643 72.5877 7.153 56.8375 2.07283C54.0596 1.17233 51.1032 0.552176 47.7901 0.178384C46.9745 0.0934317 41.3592 -1.61454e-05 40.6541 0.067946ZM58.4431 26.3523C58.8509 26.5562 59.1822 26.947 59.3012 27.3547C59.3691 27.5756 59.3861 32.299 59.3691 42.9435L59.3436 58.218L56.6506 54.0893L53.9491 49.9606V38.8573C53.9491 31.6788 53.9831 27.6436 54.0341 27.4482C54.17 26.9724 54.4674 26.5987 54.8751 26.3778C55.2234 26.1994 55.3509 26.1824 56.6846 26.1824C57.9419 26.1824 58.1628 26.1994 58.4431 26.3523Z" fill="#2F3126"/>
<path d="M66.6326 80.3057C66.3353 80.4926 66.2418 80.62 66.5052 80.4756C66.6921 80.3652 66.9979 80.1358 66.947 80.1273C66.9215 80.1273 66.7771 80.2123 66.6326 80.3057ZM66.0465 80.688C65.8935 80.8069 65.8935 80.8154 66.0804 80.722C66.1824 80.671 66.2673 80.6115 66.2673 80.5946C66.2673 80.5266 66.2249 80.5436 66.0465 80.688ZM65.6217 80.9429C65.4688 81.0618 65.4688 81.0703 65.6557 80.9768C65.7576 80.9259 65.8426 80.8664 65.8426 80.8494C65.8426 80.7815 65.8001 80.7984 65.6217 80.9429ZM65.1969 81.1977C65.044 81.3167 65.044 81.3252 65.2309 81.2317C65.3329 81.1807 65.4178 81.1213 65.4178 81.1043C65.4178 81.0363 65.3753 81.0533 65.1969 81.1977ZM64.5513 81.5375C64.2285 81.7074 64.2455 81.7754 64.5683 81.614C64.7127 81.5375 64.8231 81.4611 64.8231 81.4441C64.8231 81.3846 64.8146 81.3931 64.5513 81.5375Z" fill="#2F3126"/>
</g>
<defs>
<clipPath id="clip0_14_5">
<rect width="87" height="87" fill="white"/>
</clipPath>
</defs>
</svg>
