<svg width="97" height="87" viewBox="0 0 97 87" fill="none" xmlns="http://www.w3.org/2000/svg">
<path d="M48.5 35.0494C53.147 35.0494 56.9367 38.8052 56.9367 43.5C56.9367 47.9712 53.147 51.7718 48.5 51.7718C43.853 51.7718 40.0633 47.9712 40.0633 43.5C40.0633 38.8052 43.853 35.0494 48.5 35.0494ZM27.6112 79.2699C30.4535 80.9689 36.6795 78.3756 43.853 71.6688C41.507 69.0307 39.206 66.1692 37.0405 63.1734C33.3409 62.8157 29.6865 62.2792 26.2126 61.5638C23.9116 71.1322 24.7688 77.7049 27.6112 79.2699ZM30.8144 53.605L29.506 51.3247C29.0098 52.6213 28.5135 53.918 28.1977 55.1699C29.4158 55.4382 30.7693 55.6618 32.1679 55.8853C31.7167 55.1252 31.2656 54.3651 30.8144 53.605ZM60.3205 50.2068L63.9749 43.5L60.3205 36.7931C58.967 34.4234 57.5233 32.3219 56.2149 30.2204C53.7786 30.0863 51.207 30.0863 48.5 30.0863C45.793 30.0863 43.2214 30.0863 40.7851 30.2204C39.4767 32.3219 38.033 34.4234 36.6795 36.7931L33.0251 43.5L36.6795 50.2068C38.033 52.5766 39.4767 54.6781 40.7851 56.7796C43.2214 56.9137 45.793 56.9137 48.5 56.9137C51.207 56.9137 53.7786 56.9137 56.2149 56.7796C57.5233 54.6781 58.967 52.5766 60.3205 50.2068ZM48.5 20.1602C47.6428 21.1438 46.7405 22.1722 45.8381 23.3794C46.7405 23.3794 47.5977 23.3794 48.5 23.3794C49.4023 23.3794 50.2595 23.3794 51.1619 23.3794C50.2595 22.1722 49.3572 21.1438 48.5 20.1602ZM48.5 66.8398C49.3572 65.8562 50.2595 64.8278 51.1619 63.6205C50.2595 63.6205 49.4023 63.6205 48.5 63.6205C47.5977 63.6205 46.7405 63.6205 45.8381 63.6205C46.7405 64.8278 47.6428 65.8562 48.5 66.8398ZM69.3437 7.73013C66.5465 6.03106 60.3205 8.62438 53.147 15.3312C55.493 17.9693 57.7939 20.8308 59.9595 23.8266C63.6591 24.1843 67.3135 24.7208 70.7874 25.4362C73.0884 15.8678 72.2312 9.29506 69.3437 7.73013ZM66.1856 33.395L67.4939 35.6753C67.9902 34.3787 68.4865 33.082 68.8023 31.8301C67.5842 31.5618 66.2307 31.3382 64.8321 31.1147C65.2832 31.8748 65.7344 32.6349 66.1856 33.395ZM72.7274 1.87282C79.3595 5.62865 80.0814 15.5101 77.2842 27.0459C88.7437 30.3993 97 35.9436 97 43.5C97 51.0564 88.7437 56.6007 77.2842 59.9541C80.0814 71.4899 79.3595 81.3713 72.7274 85.1272C66.1405 88.883 57.1623 84.5906 48.5 76.4083C39.8377 84.5906 30.8595 88.883 24.2274 85.1272C17.6405 81.3713 16.9186 71.4899 19.7158 59.9541C8.25628 56.6007 0 51.0564 0 43.5C0 35.9436 8.25628 30.3993 19.7158 27.0459C16.9186 15.5101 17.6405 5.62865 24.2274 1.87282C30.8595 -1.88302 39.8377 2.40936 48.5 10.5917C57.1623 2.40936 66.1405 -1.88302 72.7274 1.87282ZM71.4191 43.5C72.953 46.8534 74.3065 50.2068 75.4344 53.605C84.9088 50.7881 90.2326 46.764 90.2326 43.5C90.2326 40.236 84.9088 36.2119 75.4344 33.395C74.3065 36.7931 72.953 40.1466 71.4191 43.5ZM25.5809 43.5C24.047 40.1466 22.6935 36.7931 21.5656 33.395C12.0912 36.2119 6.76744 40.236 6.76744 43.5C6.76744 46.764 12.0912 50.7881 21.5656 53.605C22.6935 50.2068 24.047 46.8534 25.5809 43.5ZM66.1856 53.605C65.7344 54.3651 65.2832 55.1252 64.8321 55.8853C66.2307 55.6618 67.5842 55.4382 68.8023 55.1699C68.4865 53.918 67.9902 52.6213 67.4939 51.3247L66.1856 53.605ZM53.147 71.6688C60.3205 78.3756 66.5465 80.9689 69.3437 79.2699C72.2312 77.7049 73.0884 71.1322 70.7874 61.5638C67.3135 62.2792 63.6591 62.8157 59.9595 63.1734C57.7939 66.1692 55.493 69.0307 53.147 71.6688ZM30.8144 33.395C31.2656 32.6349 31.7167 31.8748 32.1679 31.1147C30.7693 31.3382 29.4158 31.5618 28.1977 31.8301C28.5135 33.082 29.0098 34.3787 29.506 35.6753L30.8144 33.395ZM43.853 15.3312C36.6795 8.62438 30.4535 6.03106 27.6112 7.73013C24.7688 9.29506 23.9116 15.8678 26.2126 25.4362C29.6865 24.7208 33.3409 24.1843 37.0405 23.8266C39.206 20.8308 41.507 17.9693 43.853 15.3312Z" fill="#2F3126"/>
</svg>
