<svg width="86" height="53" viewBox="0 0 86 53" fill="none" xmlns="http://www.w3.org/2000/svg">
<path d="M43 0.5C31.519 0.5 24.381 6.26333 21.5 17.8333C25.8 12.07 30.831 9.90333 36.55 11.3333C39.818 12.1567 42.183 14.54 44.763 17.1833C48.977 21.5167 53.75 26.5 64.5 26.5C75.981 26.5 83.119 20.7367 86 9.16667C81.7 14.93 76.669 17.0967 70.95 15.6667C67.682 14.8433 65.36 12.46 62.737 9.81667C58.523 5.48333 53.75 0.5 43 0.5ZM21.5 26.5C10.019 26.5 2.881 32.2633 0 43.8333C4.3 38.07 9.331 35.9033 15.05 37.3333C18.318 38.1567 20.64 40.54 23.263 43.1833C27.477 47.5167 32.25 52.5 43 52.5C54.481 52.5 61.619 46.7367 64.5 35.1667C60.2 40.93 55.169 43.0967 49.45 41.6667C46.182 40.8433 43.86 38.46 41.237 35.8167C37.023 31.4833 32.25 26.5 21.5 26.5Z" fill="#2F3126"/>
</svg>
